<?xml version="1.0" encoding="UTF-8" standalone="no"?><!DOCTYPE svg PUBLIC "-//W3C//DTD SVG 1.1//EN" "http://www.w3.org/Graphics/SVG/1.1/DTD/svg11.dtd"><svg width="100%" height="100%" viewBox="0 0 196 229" version="1.1" xmlns="http://www.w3.org/2000/svg" xmlns:xlink="http://www.w3.org/1999/xlink" xml:space="preserve" style="fill-rule:evenodd;clip-rule:evenodd;stroke-linecap:round;stroke-linejoin:round;stroke-miterlimit:1.5;"><g id="logo.-light.-square.-full"><g id="mark.-full"><path id="anvil.-top" d="M123.424,79.002l0.16,0.006l0.16,0.01l0.158,0.013l0.162,0.018l0.159,0.022l0.154,0.025l0.156,0.029l0.156,0.032l0.155,0.037l0.149,0.04l0.152,0.044l0.148,0.046l0.15,0.051l0.146,0.055l0.143,0.056l0.146,0.063l0.14,0.063l0.136,0.066l0.14,0.071l0.135,0.074l0.131,0.075l0.133,0.081l0.131,0.084l0.126,0.085l0.122,0.086l0.127,0.095l0.121,0.095l0.114,0.093l0.117,0.101l0.114,0.103l0.111,0.106l0.109,0.109l0.105,0.109l0.104,0.114l0.103,0.118l0.099,0.12l0.092,0.117l0.092,0.122l0.089,0.124l0.09,0.133l0.085,0.133l0.078,0.129l0.078,0.134l0.076,0.141l0.071,0.139l0.067,0.14l0.065,0.143l0.061,0.146l0.058,0.149l0.054,0.148l0.051,0.153l0.048,0.156l0.043,0.155l0.039,0.156l0.035,0.156l0.031,0.157l0.028,0.162l0.023,0.163l0.019,0.163l0.016,0.168l0.01,0.162l0.006,0.161l0.002,0.14l0,1.201l10.535,0.001l11.663,0.001l8.886,0.002l0.138,0.002l0.173,0.008l0.178,0.015l0.169,0.02l0.17,0.025l0.175,0.032l0.166,0.037l0.16,0.04l0.171,0.049l0.165,0.053l0.155,0.056l0.158,0.062l0.156,0.067l0.157,0.075l0.151,0.077l0.149,0.083l0.146,0.088l0.148,0.095l0.14,0.097l0.131,0.097l0.14,0.11l0.131,0.112l0.125,0.113l0.128,0.123l0.123,0.128l0.116,0.13l0.11,0.129l0.112,0.143l0.107,0.146l0.097,0.143l0.095,0.15l0.088,0.149l0.082,0.15l0.077,0.155l0.067,0.146l0.063,0.146l0.061,0.155l0.056,0.156l0.05,0.156l0.045,0.155l0.042,0.165l0.039,0.175l0.03,0.166l0.026,0.167l0.021,0.177l0.016,0.188l0.008,0.179l0.003,0.18l-0.005,0.201l-0.013,0.192l-0.019,0.192l-0.029,0.203l-0.038,0.203l-0.046,0.201l-0.056,0.203l-0.068,0.212l-0.078,0.209l-0.088,0.207l-0.102,0.211l-0.113,0.207l-0.125,0.204l-0.133,0.195l-0.147,0.195l-0.13,0.154l-0.276,0.31l-0.249,0.278l-0.25,0.275l-0.249,0.271l-0.251,0.27l-0.251,0.268l-0.251,0.264l-0.251,0.263l-0.252,0.26l-0.253,0.257l-0.253,0.256l-0.254,0.253l-0.255,0.251l-0.254,0.247l-0.256,0.246l-0.256,0.244l-0.257,0.24l-0.258,0.239l-0.258,0.236l-0.259,0.234l-0.26,0.232l-0.26,0.229l-0.261,0.227l-0.262,0.224l-0.261,0.221l-0.264,0.22l-0.265,0.218l-0.264,0.214l-0.266,0.213l-0.268,0.211l-0.267,0.207l-0.267,0.205l-0.27,0.203l-0.27,0.201l-0.271,0.198l-0.271,0.196l-0.274,0.194l-0.273,0.191l-0.274,0.189l-0.276,0.187l-0.276,0.183l-0.278,0.182l-0.279,0.18l-0.279,0.177l-0.28,0.174l-0.282,0.173l-0.282,0.17l-0.282,0.167l-0.286,0.166l-0.285,0.163l-0.287,0.16l-0.287,0.158l-0.288,0.156l-0.29,0.153l-0.291,0.152l-0.291,0.148l-0.292,0.146l-0.295,0.145l-0.294,0.141l-0.296,0.139l-0.297,0.137l-0.298,0.135l-0.299,0.132l-0.3,0.13l-0.302,0.128l-0.302,0.126l-0.304,0.123l-0.305,0.121l-0.305,0.118l-0.306,0.116l-0.309,0.114l-0.309,0.112l-0.31,0.109l-0.312,0.107l-0.312,0.105l-0.313,0.102l-0.316,0.101l-0.316,0.098l-0.316,0.096l-0.319,0.093l-0.319,0.092l-0.321,0.089l-0.321,0.087l-0.324,0.085l-0.324,0.083l-0.324,0.08l-0.327,0.079l-0.328,0.076l-0.329,0.074l-0.331,0.072l-0.331,0.07l-0.332,0.068l-0.334,0.066l-0.335,0.064l-0.337,0.061l-0.337,0.06l-0.339,0.057l-0.34,0.056l-0.341,0.054l-0.344,0.051l-0.344,0.05l-0.345,0.048l-0.347,0.045l-0.348,0.044l-0.35,0.042l-0.351,0.04l-0.353,0.038l-0.353,0.036l-0.355,0.034l-0.357,0.032l-0.358,0.031l-0.36,0.029l-0.36,0.027l-0.363,0.025l-0.364,0.023l-0.365,0.021l-0.368,0.02l-0.368,0.018l-0.37,0.016l-0.372,0.014l-0.373,0.013l-0.375,0.011l-0.376,0.009l-0.378,0.008l-0.381,0.005l-0.381,0.005l-0.383,0.002l-0.381,0.001l-62.03,0l-0.137,-0.002l-0.163,-0.006l-0.161,-0.01l-0.161,-0.013l-0.158,-0.018l-0.155,-0.021l-0.158,-0.026l-0.16,-0.029l-0.152,-0.033l-0.152,-0.035l-0.155,-0.041l-0.149,-0.044l-0.149,-0.046l-0.147,-0.051l-0.149,-0.055l-0.145,-0.057l-0.138,-0.059l-0.143,-0.065l-0.144,-0.069l-0.134,-0.069l-0.133,-0.072l-0.137,-0.079l-0.129,-0.079l-0.128,-0.082l-0.13,-0.087l-0.127,-0.09l-0.118,-0.088l-0.121,-0.095l-0.123,-0.101l-0.112,-0.097l-0.113,-0.102l-0.111,-0.106l-0.11,-0.108l-0.106,-0.112l-0.102,-0.112l-0.098,-0.112l-0.099,-0.119l-0.101,-0.128l-0.089,-0.12l-0.089,-0.124l-0.089,-0.131l-0.081,-0.127l-0.085,-0.139l-0.078,-0.135l-0.071,-0.132l-0.074,-0.144l-0.066,-0.137l-0.066,-0.146l-0.061,-0.147l-0.058,-0.146l-0.055,-0.154l-0.05,-0.148l-0.047,-0.156l-0.043,-0.155l-0.038,-0.15l-0.037,-0.162l-0.031,-0.163l-0.027,-0.157l-0.023,-0.162l-0.02,-0.163l-0.014,-0.162l-0.011,-0.161l-0.007,-0.168l-0.001,-0.14l0,-1.345l-0.002,-0.034l-0.005,-0.099l-0.006,-0.102l-0.006,-0.103l-0.007,-0.095l-0.007,-0.094l-0.009,-0.1l-0.009,-0.092l-0.01,-0.093l-0.01,-0.093l-0.011,-0.091l-0.011,-0.09l-0.012,-0.086l-0.013,-0.091l-0.013,-0.086l-0.014,-0.085l-0.015,-0.085l-0.014,-0.079l-0.016,-0.082l-0.016,-0.084l-0.017,-0.079l-0.017,-0.078l-0.017,-0.078l-0.018,-0.076l-0.019,-0.075l-0.019,-0.074l-0.02,-0.076l-0.02,-0.072l-0.02,-0.071l-0.021,-0.07l-0.021,-0.069l-0.023,-0.071l-0.022,-0.067l-0.022,-0.066l-0.024,-0.068l-0.023,-0.064l-0.024,-0.063l-0.023,-0.062l-0.026,-0.065l-0.026,-0.064l-0.024,-0.056l-0.027,-0.062l-0.027,-0.062l-0.026,-0.057l-0.028,-0.06l-0.027,-0.055l-0.028,-0.055l-0.029,-0.059l-0.029,-0.055l-0.029,-0.054l-0.031,-0.056l-0.03,-0.054l-0.03,-0.051l-0.03,-0.051l-0.032,-0.053l-0.032,-0.053l-0.034,-0.052l-0.033,-0.051l-0.032,-0.049l-0.034,-0.05l-0.033,-0.047l-0.035,-0.05l-0.036,-0.048l-0.036,-0.049l-0.036,-0.048l-0.038,-0.048l-0.037,-0.047l-0.036,-0.044l-0.04,-0.048l-0.039,-0.046l-0.039,-0.045l-0.041,-0.047l-0.042,-0.046l-0.04,-0.044l-0.043,-0.045l-0.042,-0.045l-0.044,-0.044l-0.043,-0.044l-0.048,-0.047l-0.045,-0.043l-0.043,-0.041l-0.048,-0.044l-0.049,-0.045l-0.048,-0.043l-0.048,-0.042l-0.05,-0.043l-0.051,-0.042l-0.052,-0.043l-0.053,-0.043l-0.052,-0.042l-0.052,-0.04l-0.056,-0.043l-0.056,-0.042l-0.056,-0.041l-0.058,-0.042l-0.058,-0.042l-0.058,-0.04l-0.06,-0.041l-0.062,-0.042l-0.061,-0.04l-0.061,-0.04l-0.063,-0.04l-0.066,-0.041l-0.064,-0.04l-0.066,-0.039l-0.067,-0.04l-0.069,-0.04l-0.069,-0.04l-0.069,-0.038l-0.071,-0.039l-0.073,-0.04l-0.071,-0.038l-0.074,-0.038l-0.075,-0.039l-0.075,-0.038l-0.078,-0.038l-0.076,-0.038l-0.077,-0.036l-0.081,-0.038l-0.081,-0.038l-0.08,-0.036l-0.076,-0.034l-0.173,-0.076l-0.172,-0.072l-0.175,-0.071l-0.179,-0.07l-0.182,-0.069l-0.186,-0.068l-0.191,-0.068l-0.193,-0.066l-0.198,-0.065l-0.202,-0.064l-0.205,-0.064l-0.209,-0.062l-0.212,-0.061l-0.216,-0.06l-0.22,-0.059l-0.224,-0.058l-0.227,-0.057l-0.23,-0.055l-0.234,-0.055l-0.237,-0.054l-0.24,-0.052l-0.245,-0.052l-0.248,-0.051l-0.251,-0.049l-0.255,-0.048l-0.256,-0.048l-0.262,-0.046l-0.264,-0.046l-0.268,-0.044l-0.27,-0.043l-0.273,-0.043l-0.277,-0.041l-0.281,-0.041l-0.282,-0.039l-0.286,-0.039l-0.289,-0.037l-0.292,-0.037l-0.295,-0.036l-0.298,-0.035l-0.301,-0.035l-0.304,-0.033l-0.306,-0.033l-0.31,-0.032l-0.312,-0.031l-0.315,-0.03l-0.318,-0.03l-0.32,-0.029l-0.323,-0.028l-0.327,-0.028l-0.328,-0.027l-0.331,-0.026l-0.334,-0.026l-0.334,-0.025l-0.683,-0.049l-0.691,-0.047l-0.7,-0.045l-0.71,-0.044l-0.721,-0.042l-0.729,-0.042l-0.79,-0.042l-0.201,-0.016l-0.248,-0.031l-0.244,-0.043l-0.243,-0.054l-0.24,-0.066l-0.231,-0.075l-0.228,-0.086l-0.222,-0.096l-0.219,-0.106l-0.211,-0.116l-0.211,-0.127l-0.2,-0.136l-0.188,-0.139l-0.185,-0.151l-0.182,-0.162l-0.173,-0.17l-0.163,-0.175l-0.157,-0.186l-0.149,-0.193l-0.138,-0.199l-0.127,-0.201l-0.122,-0.216l-0.111,-0.22l-0.102,-0.228l-0.092,-0.236l-0.079,-0.237l-0.068,-0.245l-0.056,-0.244l-0.045,-0.251l-0.033,-0.263l-0.019,-0.255l-0.005,-0.204l0,-5.31l0.001,-0.11l0.006,-0.137l0.008,-0.124l0.012,-0.138l0.017,-0.139l0.018,-0.125l0.021,-0.129l0.028,-0.139l0.029,-0.127l0.028,-0.115l0.038,-0.139l0.048,-0.155l0.076,-0.219l0.096,-0.234l0.109,-0.237l0.121,-0.227l0.126,-0.215l0.141,-0.214l0.149,-0.203l0.159,-0.197l0.166,-0.185l0.171,-0.175l0.185,-0.171l0.19,-0.161l0.195,-0.149l0.206,-0.142l0.211,-0.131l0.217,-0.122l0.226,-0.112l0.229,-0.101l0.238,-0.091l0.236,-0.078l0.244,-0.067l0.232,-0.052l0.148,-0.028l0.124,-0.02l0.13,-0.018l0.132,-0.014l0.129,-0.011l0.123,-0.008l0.128,-0.005l0.109,-0.001l89.071,0l0.137,0.002Zm-89.214,3.998l-0.032,0.002l-0.031,0.001l-0.031,0.003l-0.031,0.004l-0.03,0.004l-0.031,0.005l-0.03,0.005l-0.059,0.014l-0.058,0.016l-0.057,0.018l-0.056,0.022l-0.054,0.023l-0.053,0.027l-0.051,0.028l-0.05,0.031l-0.048,0.034l-0.046,0.035l-0.045,0.038l-0.042,0.039l-0.041,0.041l-0.038,0.044l-0.037,0.045l-0.034,0.046l-0.032,0.049l-0.029,0.05l-0.027,0.051l-0.025,0.053l-0.022,0.054l-0.019,0.055l-0.009,0.028l-0.008,0.029l-0.007,0.028l-0.006,0.029l-0.006,0.03l-0.005,0.029l-0.004,0.03l-0.004,0.03l-0.003,0.03l-0.002,0.03l-0.001,0.031l0,0.03l0,5.23l0.001,0.058l0.005,0.059l0.007,0.057l0.01,0.057l0.013,0.055l0.015,0.055l0.018,0.054l0.02,0.052l0.023,0.051l0.025,0.05l0.028,0.049l0.03,0.047l0.032,0.046l0.034,0.045l0.036,0.042l0.038,0.041l0.04,0.039l0.042,0.038l0.043,0.035l0.046,0.034l0.047,0.031l0.048,0.03l0.05,0.027l0.051,0.025l0.053,0.023l0.054,0.02l0.055,0.018l0.057,0.016l0.058,0.013l0.058,0.01l0.06,0.007l0.06,0.005l0.746,0.041l0.738,0.041l0.73,0.043l0.722,0.044l0.714,0.047l0.705,0.048l0.697,0.05l0.345,0.026l0.343,0.026l0.341,0.027l0.339,0.028l0.336,0.029l0.334,0.029l0.332,0.03l0.33,0.031l0.327,0.031l0.326,0.033l0.322,0.033l0.321,0.034l0.318,0.035l0.316,0.036l0.314,0.037l0.311,0.038l0.309,0.039l0.306,0.04l0.304,0.041l0.302,0.042l0.299,0.044l0.297,0.044l0.294,0.045l0.292,0.047l0.289,0.048l0.287,0.05l0.284,0.05l0.282,0.052l0.279,0.053l0.276,0.055l0.275,0.055l0.271,0.058l0.269,0.059l0.266,0.06l0.264,0.061l0.261,0.064l0.258,0.064l0.256,0.067l0.253,0.068l0.25,0.069l0.248,0.071l0.245,0.073l0.242,0.075l0.239,0.076l0.237,0.078l0.233,0.08l0.231,0.082l0.229,0.083l0.225,0.086l0.223,0.087l0.219,0.089l0.217,0.091l0.214,0.093l0.106,0.048l0.105,0.047l0.105,0.049l0.103,0.049l0.103,0.049l0.102,0.05l0.102,0.05l0.101,0.051l0.1,0.051l0.099,0.052l0.099,0.053l0.098,0.053l0.097,0.053l0.096,0.054l0.096,0.055l0.094,0.055l0.094,0.056l0.094,0.056l0.092,0.057l0.092,0.058l0.091,0.057l0.091,0.059l0.089,0.059l0.089,0.06l0.088,0.06l0.087,0.061l0.087,0.061l0.085,0.062l0.085,0.063l0.084,0.063l0.084,0.064l0.082,0.064l0.082,0.065l0.081,0.066l0.08,0.066l0.08,0.067l0.079,0.068l0.078,0.068l0.077,0.068l0.076,0.07l0.076,0.07l0.074,0.07l0.074,0.072l0.073,0.072l0.073,0.072l0.071,0.073l0.071,0.074l0.07,0.075l0.069,0.075l0.068,0.076l0.068,0.076l0.067,0.077l0.065,0.078l0.065,0.079l0.065,0.079l0.063,0.08l0.063,0.08l0.062,0.081l0.06,0.082l0.061,0.083l0.059,0.083l0.058,0.084l0.058,0.085l0.057,0.085l0.056,0.087l0.055,0.087l0.054,0.087l0.054,0.088l0.052,0.089l0.052,0.09l0.051,0.091l0.05,0.091l0.049,0.092l0.049,0.093l0.047,0.093l0.047,0.094l0.046,0.095l0.045,0.096l0.044,0.096l0.043,0.098l0.042,0.098l0.042,0.098l0.041,0.1l0.039,0.1l0.039,0.101l0.038,0.102l0.037,0.103l0.037,0.103l0.035,0.104l0.035,0.105l0.033,0.106l0.033,0.107l0.032,0.107l0.031,0.109l0.03,0.109l0.029,0.109l0.029,0.111l0.027,0.112l0.027,0.112l0.025,0.113l0.025,0.114l0.024,0.115l0.023,0.116l0.022,0.116l0.021,0.118l0.02,0.118l0.02,0.119l0.018,0.12l0.018,0.12l0.016,0.122l0.016,0.123l0.015,0.123l0.014,0.124l0.012,0.125l0.013,0.126l0.011,0.127l0.01,0.128l0.009,0.128l0.008,0.13l0.008,0.13l0.006,0.132l0.006,0.132l0,1.4l0,0.062l0.003,0.06l0.004,0.061l0.005,0.06l0.007,0.06l0.009,0.059l0.01,0.059l0.011,0.058l0.013,0.057l0.014,0.058l0.016,0.056l0.017,0.056l0.019,0.056l0.02,0.054l0.021,0.055l0.022,0.053l0.024,0.053l0.025,0.052l0.027,0.052l0.027,0.051l0.029,0.05l0.03,0.049l0.031,0.049l0.033,0.047l0.033,0.047l0.035,0.047l0.035,0.045l0.037,0.044l0.038,0.044l0.039,0.042l0.04,0.042l0.041,0.041l0.042,0.04l0.043,0.038l0.043,0.038l0.045,0.037l0.046,0.036l0.046,0.034l0.048,0.034l0.048,0.033l0.049,0.031l0.05,0.03l0.051,0.03l0.051,0.028l0.053,0.026l0.053,0.026l0.053,0.024l0.055,0.023l0.055,0.022l0.056,0.021l0.056,0.019l0.057,0.018l0.058,0.017l0.058,0.015l0.059,0.014l0.059,0.013l0.06,0.011l0.06,0.01l0.061,0.008l0.062,0.007l0.061,0.005l0.063,0.004l0.062,0.002l0.063,0.001l62.004,0l0.368,-0.001l0.365,-0.002l0.364,-0.004l0.362,-0.006l0.36,-0.007l0.358,-0.009l0.356,-0.01l0.354,-0.012l0.353,-0.014l0.35,-0.015l0.349,-0.017l0.347,-0.019l0.345,-0.02l0.343,-0.022l0.341,-0.023l0.34,-0.026l0.338,-0.026l0.336,-0.029l0.335,-0.031l0.333,-0.032l0.331,-0.033l0.33,-0.036l0.327,-0.037l0.327,-0.039l0.324,-0.041l0.323,-0.043l0.322,-0.044l0.319,-0.046l0.319,-0.048l0.316,-0.05l0.315,-0.051l0.314,-0.053l0.312,-0.055l0.311,-0.057l0.309,-0.059l0.307,-0.061l0.307,-0.062l0.304,-0.065l0.304,-0.066l0.302,-0.068l0.3,-0.07l0.299,-0.072l0.298,-0.074l0.297,-0.075l0.295,-0.078l0.293,-0.079l0.293,-0.082l0.291,-0.083l0.29,-0.085l0.289,-0.088l0.287,-0.089l0.286,-0.091l0.285,-0.093l0.284,-0.096l0.282,-0.097l0.282,-0.099l0.28,-0.101l0.279,-0.103l0.278,-0.105l0.277,-0.108l0.276,-0.109l0.274,-0.111l0.274,-0.114l0.272,-0.115l0.272,-0.118l0.27,-0.119l0.27,-0.122l0.268,-0.124l0.267,-0.126l0.267,-0.128l0.265,-0.13l0.265,-0.132l0.263,-0.135l0.263,-0.137l0.262,-0.138l0.261,-0.141l0.26,-0.143l0.259,-0.145l0.259,-0.148l0.257,-0.149l0.257,-0.152l0.256,-0.154l0.255,-0.157l0.254,-0.158l0.254,-0.161l0.253,-0.163l0.252,-0.165l0.251,-0.167l0.251,-0.17l0.25,-0.172l0.25,-0.174l0.248,-0.177l0.248,-0.179l0.248,-0.181l0.247,-0.183l0.246,-0.186l0.246,-0.188l0.245,-0.191l0.245,-0.193l0.244,-0.195l0.243,-0.197l0.243,-0.2l0.243,-0.202l0.242,-0.205l0.241,-0.207l0.242,-0.21l0.24,-0.211l0.241,-0.215l0.239,-0.216l0.24,-0.22l0.239,-0.221l0.239,-0.224l0.238,-0.227l0.238,-0.228l0.238,-0.232l0.238,-0.234l0.237,-0.236l0.237,-0.239l0.237,-0.241l0.236,-0.244l0.236,-0.247l0.236,-0.249l0.236,-0.251l0.235,-0.254l0.236,-0.257l0.235,-0.259l0.235,-0.261l0.235,-0.265l0.027,-0.031l0.024,-0.033l0.023,-0.033l0.021,-0.034l0.019,-0.035l0.018,-0.036l0.015,-0.037l0.014,-0.037l0.012,-0.037l0.011,-0.039l0.009,-0.038l0.007,-0.039l0.005,-0.04l0.004,-0.04l0.003,-0.04l0.001,-0.04l-0.001,-0.04l-0.001,-0.041l-0.004,-0.04l-0.005,-0.041l-0.006,-0.041l-0.007,-0.04l-0.009,-0.04l-0.01,-0.04l-0.012,-0.04l-0.013,-0.039l-0.014,-0.039l-0.015,-0.039l-0.016,-0.038l-0.017,-0.037l-0.019,-0.037l-0.02,-0.037l-0.02,-0.035l-0.022,-0.035l-0.023,-0.033l-0.024,-0.033l-0.026,-0.032l-0.026,-0.031l-0.027,-0.03l-0.028,-0.029l-0.029,-0.028l-0.03,-0.028l-0.03,-0.026l-0.032,-0.025l-0.032,-0.024l-0.034,-0.023l-0.033,-0.021l-0.035,-0.021l-0.035,-0.02l-0.036,-0.018l-0.037,-0.017l-0.037,-0.017l-0.038,-0.015l-0.038,-0.013l-0.039,-0.013l-0.039,-0.011l-0.04,-0.01l-0.04,-0.009l-0.041,-0.007l-0.04,-0.006l-0.042,-0.005l-0.041,-0.003l-0.042,-0.003l-0.042,0l-8.853,-0.002l-11.662,-0.001l-14.535,-0.001l0,-5.174l-0.001,-0.062l-0.002,-0.06l-0.004,-0.061l-0.005,-0.06l-0.008,-0.06l-0.008,-0.059l-0.01,-0.059l-0.011,-0.058l-0.013,-0.057l-0.015,-0.058l-0.016,-0.056l-0.017,-0.056l-0.018,-0.056l-0.02,-0.054l-0.021,-0.055l-0.023,-0.053l-0.024,-0.053l-0.025,-0.052l-0.026,-0.052l-0.028,-0.051l-0.028,-0.05l-0.03,-0.049l-0.032,-0.049l-0.032,-0.047l-0.033,-0.047l-0.035,-0.047l-0.036,-0.045l-0.036,-0.044l-0.038,-0.044l-0.039,-0.042l-0.04,-0.042l-0.041,-0.041l-0.042,-0.04l-0.043,-0.038l-0.044,-0.038l-0.044,-0.037l-0.046,-0.036l-0.047,-0.034l-0.047,-0.034l-0.048,-0.033l-0.05,-0.031l-0.049,-0.03l-0.051,-0.03l-0.052,-0.028l-0.052,-0.026l-0.053,-0.026l-0.054,-0.024l-0.054,-0.023l-0.055,-0.022l-0.056,-0.021l-0.056,-0.019l-0.057,-0.018l-0.058,-0.017l-0.058,-0.015l-0.059,-0.014l-0.059,-0.013l-0.06,-0.011l-0.061,-0.01l-0.061,-0.008l-0.061,-0.007l-0.062,-0.005l-0.062,-0.004l-0.063,-0.002l-0.063,-0.001l-89.02,0l-0.031,0Z"/><path id="anvil.-base" d="M110.939,117.008l0.251,0.024l0.249,0.039l0.246,0.056l0.242,0.07l0.237,0.086l0.232,0.1l0.224,0.115l0.217,0.129l0.208,0.142l0.199,0.155l0.189,0.167l0.178,0.179l0.166,0.19l0.154,0.199l0.141,0.21l0.127,0.217l0.114,0.225l2.329,5l0.098,0.231l0.084,0.236l0.07,0.241l0.053,0.245l0.039,0.248l0.023,0.25l0.007,0.25l-0.009,0.251l-0.024,0.25l-0.04,0.247l-0.056,0.245l-0.07,0.24l-0.086,0.236l-0.1,0.23l-0.114,0.223l-0.128,0.216l-0.142,0.207l-0.154,0.198l-0.166,0.188l-0.177,0.177l-0.189,0.166l-0.198,0.153l-0.208,0.141l-0.216,0.127l-0.223,0.114l-0.231,0.099l-0.236,0.085l-0.24,0.07l-0.245,0.054l-0.248,0.04l-0.25,0.023l-0.25,0.008l-41,0l-0.255,-0.008l-0.254,-0.024l-0.251,-0.041l-0.249,-0.056l-0.244,-0.072l-0.24,-0.088l-0.233,-0.102l-0.226,-0.118l-0.219,-0.131l-0.209,-0.145l-0.2,-0.158l-0.19,-0.171l-0.178,-0.182l-0.166,-0.193l-0.154,-0.204l-0.14,-0.212l-0.127,-0.222l-0.112,-0.228l-0.097,-0.236l-0.082,-0.241l-0.067,-0.246l-0.05,-0.25l-0.035,-0.253l-0.019,-0.254l-0.002,-0.255l0.014,-0.254l0.03,-0.253l0.046,-0.251l0.061,-0.247l0.078,-0.243l0.093,-0.237l0.108,-0.231l0.122,-0.224l2.945,-5l0.13,-0.206l0.143,-0.199l0.154,-0.189l0.166,-0.179l0.177,-0.169l0.186,-0.158l0.196,-0.146l0.204,-0.134l0.212,-0.122l0.219,-0.108l0.226,-0.094l0.23,-0.081l0.235,-0.066l0.239,-0.052l0.242,-0.037l0.243,-0.023l0.244,-0.007l35.727,0l0.252,0.008Zm-35.979,3.992l-2.944,5l41,0l-2.329,-5l-35.727,0Z"/><g id="hammer"><path id="hammer.-base" d="M87.273,0.019l0.353,0.051l0.347,0.082l0.339,0.112l0.327,0.143l0.313,0.171l0.297,0.198l0.277,0.223l0.257,0.248l0.234,0.27l0.209,0.289l0.182,0.307l0.154,0.321l0.125,0.334l0.095,0.344l5.198,22.843l2.752,3.151l62.317,0.511l0.346,0.018l0.344,0.048l0.338,0.078l0.331,0.106l0.32,0.135l0.307,0.162l0.291,0.188l0.275,0.213l0.255,0.236l0.233,0.256l0.211,0.276l0.185,0.294l0.16,0.308l0.132,0.321l0.104,0.331l0.075,0.339l0.045,0.345l0.015,0.346l0,10.002l-0.015,0.349l-0.046,0.346l-0.076,0.34l-0.104,0.333l-0.134,0.323l-0.161,0.309l-0.188,0.294l-0.212,0.277l-0.236,0.257l-0.257,0.236l-0.277,0.213l-0.294,0.187l-0.31,0.161l-0.322,0.134l-0.333,0.105l-0.341,0.075l-0.346,0.046l-0.348,0.015l-62.297,0l-2.416,2.765l0,6.141l3.611,4.133l0.2,0.249l0.18,0.264l0.158,0.277l0.136,0.288l0.112,0.299l0.088,0.307l0.063,0.313l0.038,0.316l0.013,0.319l0,4.71l-0.015,0.349l-0.046,0.346l-0.076,0.34l-0.104,0.333l-0.134,0.322l-0.161,0.31l-0.188,0.294l-0.212,0.277l-0.236,0.257l-0.257,0.236l-0.277,0.213l-0.294,0.187l-0.31,0.161l-0.322,0.134l-0.333,0.105l-0.341,0.075l-0.346,0.046l-0.348,0.015l-15.886,0l-0.349,-0.015l-0.346,-0.046l-0.341,-0.075l-0.332,-0.105l-0.323,-0.134l-0.309,-0.161l-0.295,-0.187l-0.276,-0.213l-0.258,-0.236l-0.235,-0.257l-0.213,-0.277l-0.187,-0.294l-0.161,-0.31l-0.134,-0.322l-0.105,-0.333l-0.075,-0.34l-0.046,-0.346l-0.015,-0.349l0,-40.173l0.013,-0.322l0.038,-0.319l0.065,-0.315l5.865,-23.827l0.101,-0.342l0.131,-0.332l0.159,-0.319l0.188,-0.304l0.214,-0.285l0.238,-0.266l0.261,-0.243l0.282,-0.218l0.3,-0.193l0.316,-0.166l0.33,-0.136l0.34,-0.107l0.349,-0.076l0.354,-0.044l0.356,-0.013l0.357,0.019Zm-6.257,27.808l0,40.173l15.886,0l0,-4.71l-4.599,-5.264l0,-9.143l4.599,-5.264l64.114,0l0,-10.002l-64.114,-0.526l-4.599,-5.264l-5.422,-23.827l-5.865,23.827Z"/><path id="hammer.-line.-left" d="M101.016,34l0,10" style="fill:none;stroke:#000;stroke-width:4px;"/><path id="hammer.-line.-mid" d="M134.016,34l0,10" style="fill:none;stroke:#000;stroke-width:4px;"/><path id="hammer.-line.-right" d="M149.016,34l0,10" style="fill:none;stroke:#000;stroke-width:4px;"/></g><path id="_1.-bottom" d="M66.016,69l-9.225,-9l-1.775,1.711" style="fill:none;stroke:#000;stroke-width:4px;"/><path id="_1.-top" d="M46.016,49l-9.225,-9l-1.775,1.711" style="fill:none;stroke:#000;stroke-width:4px;"/><path id="_0.-top" d="M59.678,37.762c-0.946,-0.945 -2.479,-0.945 -3.425,0c-0.493,0.494 -1.032,1.032 -1.525,1.526c-0.946,0.945 -0.946,2.479 0,3.424c1.473,1.473 3.588,3.588 5.061,5.061c0.945,0.946 2.479,0.946 3.424,0c0.494,-0.493 1.032,-1.032 1.526,-1.525c0.945,-0.946 0.945,-2.479 0,-3.425c-1.474,-1.473 -3.588,-3.587 -5.061,-5.061Z" style="fill:none;stroke:#000;stroke-width:4px;"/><path id="_0.-bottom" d="M39.678,57.762c-0.946,-0.945 -2.479,-0.945 -3.425,0c-0.493,0.494 -1.032,1.032 -1.525,1.526c-0.946,0.945 -0.946,2.479 0,3.424c1.473,1.473 3.588,3.588 5.061,5.061c0.945,0.946 2.479,0.946 3.424,0c0.494,-0.493 1.032,-1.032 1.526,-1.525c0.945,-0.946 0.945,-2.479 0,-3.425c-1.474,-1.473 -3.588,-3.587 -5.061,-5.061Z" style="fill:none;stroke:#000;stroke-width:4px;"/></g><g id="aule"><path d="M2,189l11.953,-30l5.977,0l12.07,30" style="fill:none;stroke:#000;stroke-width:4px;"/><path d="M54,159l0,24l6,6l18,0l6,-6l0,-24" style="fill:none;stroke:#000;stroke-width:4px;"/><path d="M113.117,159l-0.117,30l30,0l0,-6" style="fill:none;stroke:#000;stroke-width:4px;"/><path d="M194,165l0,-6l-30,0l0,30l30,0l0,-6" style="fill:none;stroke:#000;stroke-width:4px;"/><path d="M164,174l24,0" style="fill:none;stroke:#000;stroke-width:4px;"/><path d="M6,180l22,0" style="fill:none;stroke:#000;stroke-width:4px;"/><path d="M168,149l6,0" style="fill:none;stroke:#000;stroke-width:4px;"/><path d="M184,149l6,0" style="fill:none;stroke:#000;stroke-width:4px;"/></g><path id="software" d="M1.496,224.543l-1.416,1.621c1.517,1.302 3.331,1.953 5.44,1.953c3.262,-0.039 4.928,-1.419 5,-4.14c0,-1.01 -0.316,-1.895 -0.947,-2.657c-0.638,-0.774 -1.625,-1.253 -2.959,-1.435c-0.677,-0.085 -1.211,-0.16 -1.602,-0.225c-0.703,-0.13 -1.214,-0.364 -1.533,-0.703c-0.319,-0.332 -0.479,-0.703 -0.479,-1.113c0.013,-0.684 0.251,-1.198 0.713,-1.543c0.443,-0.332 0.996,-0.498 1.66,-0.498c1.283,0.026 2.458,0.39 3.526,1.093l1.201,-1.777c-1.309,-0.944 -2.848,-1.435 -4.619,-1.474c-1.471,0.013 -2.608,0.397 -3.408,1.152c-0.827,0.762 -1.241,1.764 -1.241,3.008c0,1.035 0.329,1.914 0.987,2.636c0.638,0.704 1.569,1.156 2.793,1.358c0.683,0.097 1.312,0.185 1.884,0.263c1.25,0.215 1.869,0.853 1.856,1.915c-0.026,1.295 -0.964,1.956 -2.813,1.982c-1.562,-0.013 -2.91,-0.485 -4.043,-1.416Z" style="fill-opacity:0.498039;fill-rule:nonzero;"/><path d="M26.707,220.881c0,1.627 0.049,2.728 0.147,3.301c0.052,0.306 0.117,0.56 0.195,0.761c0.084,0.196 0.179,0.401 0.283,0.616c0.345,0.657 0.898,1.237 1.66,1.738c0.749,0.521 1.683,0.794 2.803,0.82c1.133,-0.026 2.077,-0.299 2.832,-0.82c0.749,-0.501 1.289,-1.081 1.621,-1.738c0.241,-0.345 0.407,-0.804 0.498,-1.377c0.085,-0.573 0.127,-1.674 0.127,-3.301c0,-1.654 -0.042,-2.761 -0.127,-3.32c-0.091,-0.56 -0.257,-1.013 -0.498,-1.358c-0.332,-0.657 -0.872,-1.243 -1.621,-1.758c-0.755,-0.521 -1.699,-0.787 -2.832,-0.8c-1.12,0.013 -2.054,0.279 -2.803,0.8c-0.762,0.515 -1.315,1.101 -1.66,1.758c-0.215,0.345 -0.374,0.798 -0.478,1.358c-0.098,0.559 -0.147,1.666 -0.147,3.32Zm2.168,0c0,-1.4 0.052,-2.354 0.156,-2.861c0.091,-0.482 0.277,-0.876 0.557,-1.182c0.228,-0.293 0.527,-0.537 0.898,-0.733c0.365,-0.188 0.801,-0.289 1.309,-0.302c0.514,0.013 0.96,0.114 1.338,0.302c0.358,0.196 0.644,0.44 0.859,0.733c0.28,0.306 0.472,0.7 0.576,1.182c0.098,0.507 0.147,1.461 0.147,2.861c0,1.4 -0.049,2.347 -0.147,2.842c-0.104,0.494 -0.296,0.895 -0.576,1.201c-0.215,0.293 -0.501,0.53 -0.859,0.713c-0.378,0.215 -0.824,0.322 -1.338,0.322c-0.508,0 -0.944,-0.107 -1.309,-0.322c-0.371,-0.183 -0.67,-0.42 -0.898,-0.713c-0.28,-0.306 -0.466,-0.707 -0.557,-1.201c-0.104,-0.495 -0.156,-1.442 -0.156,-2.842Z" style="fill-opacity:0.498039;fill-rule:nonzero;"/><path d="M53.793,228l2.158,0l0,-6.084l5.918,0l0,-1.914l-5.918,0l0,-4.199l6.933,0l0,-2.041l-9.091,0l0,14.238Z" style="fill-opacity:0.498039;fill-rule:nonzero;"/><path d="M81.347,228l2.168,0l0,-12.314l3.896,0l0,-1.924l-9.961,0l0,1.924l3.897,0l0,12.314Z" style="fill-opacity:0.498039;fill-rule:nonzero;"/><path d="M105.61,228l1.797,0l2.725,-10.264l0.039,0l2.715,10.264l1.806,0l3.555,-14.238l-2.276,0l-2.246,10.117l-0.039,0l-2.754,-10.117l-1.562,0l-2.764,10.117l-0.039,0l-2.236,-10.117l-2.276,0l3.555,14.238Z" style="fill-opacity:0.498039;fill-rule:nonzero;"/><path d="M136.153,222.902l2.06,-6.22l0.039,0l2.061,6.22l-4.16,0Zm5.879,5.098l2.275,0l-5.176,-14.238l-1.806,0l-5.176,14.238l2.285,0l1.094,-3.184l5.4,0l1.104,3.184Z" style="fill-opacity:0.498039;fill-rule:nonzero;"/><path d="M162.389,215.686l3.379,0c0.69,0 1.217,0.146 1.582,0.439c0.462,0.332 0.699,0.869 0.712,1.611c0,0.619 -0.198,1.14 -0.595,1.563c-0.404,0.456 -1.009,0.69 -1.817,0.703l-3.261,0l0,-4.316Zm-2.159,12.314l2.159,0l0,-6.084l2.754,0l2.939,6.084l2.568,0l-3.3,-6.318c1.81,-0.697 2.727,-2.012 2.754,-3.946c-0.04,-1.315 -0.512,-2.327 -1.417,-3.037c-0.748,-0.625 -1.715,-0.937 -2.9,-0.937l-5.557,0l0,14.238Z" style="fill-opacity:0.498039;fill-rule:nonzero;"/><path d="M186.828,228l9.092,0l0,-2.041l-6.934,0l0,-4.18l5.918,0l0,-1.914l-5.918,0l0,-4.062l6.934,0l0,-2.041l-9.092,0l0,14.238Z" style="fill-opacity:0.498039;fill-rule:nonzero;"/></g></svg>